<?xml version="1.0" encoding="utf-8"?>
<!-- Generator: Adobe Illustrator 20.0.0, SVG Export Plug-In . SVG Version: 6.00 Build 0)  -->
<svg version="1.1" id="Layer_1" xmlns="http://www.w3.org/2000/svg" xmlns:xlink="http://www.w3.org/1999/xlink" x="0px" y="0px"
	 viewBox="0 0 841.9 595.3" style="enable-background:new 0 0 841.9 595.3;" xml:space="preserve">
<style type="text/css">
	.st0{fill:#007DC5;}
	.st1{fill:#002659;}
</style>
<title>bulpros-logo</title>
<path class="st0" d="M180.4,241.6c2.6,0,5.3,0.3,7.8,1c2.2,0.6,4.3,1.7,6.2,3.1c1.7,1.4,3.1,3.2,4,5.2c1,2.3,1.5,4.8,1.4,7.3
	c0,3.6-1.1,7.1-3.1,10.1c0.5,0.7,1,1.5,1.5,2.2c0.5,0.7,1,1.4,1.4,2.2c0.4,0.8,0.7,1.6,1,2.5c0.3,1,0.4,1.9,0.4,2.9
	c0,1.6-0.2,3.2-0.7,4.7c-0.5,1.5-1.1,2.9-1.9,4.2c-0.8,1.3-1.8,2.5-3,3.5c-1.1,1.1-2.4,2-3.7,2.7c-1.3,0.8-2.7,1.4-4.2,1.8
	c-1.5,0.4-3,0.6-4.6,0.6h-60v-54L180.4,241.6L180.4,241.6z M185.4,261.4v-6.1h-48.2v6.1H185.4L185.4,261.4z M185.4,281.6v-6.2h-48.2
	v6.2H185.4L185.4,281.6z"/>
<path class="st0" d="M222.5,241.6V282h49.1v-40.4h14.3v38.3c0,1.3-0.2,2.6-0.6,3.9c-0.4,1.3-1,2.5-1.8,3.7c-0.8,1.2-1.7,2.3-2.7,3.2
	c-1,1-2.1,1.9-3.4,2.6c-1.2,0.7-2.4,1.3-3.8,1.7c-1.3,0.4-2.6,0.6-3.9,0.6h-44.7c-1.4,0-2.8-0.2-4.2-0.7c-1.4-0.5-2.7-1.1-3.9-1.9
	c-1.3-0.8-2.4-1.8-3.4-2.9c-1-1.1-2-2.3-2.8-3.6c-0.8-1.3-1.4-2.6-1.8-4c-0.4-1.4-0.7-2.8-0.7-4.3v-36.6L222.5,241.6L222.5,241.6z"
	/>
<path class="st0" d="M368.8,281.5v14.1H310c-2.1,0-4.3-0.5-6.2-1.4c-4-1.8-7.3-5-9.1-9c-0.9-2-1.4-4.1-1.4-6.3v-37.5h14.1v40.1
	H368.8L368.8,281.5z"/>
<path class="st1" d="M443.3,241.6c2.4,0,4.8,0.4,7.1,1.2c2.2,0.8,4.3,2,6.1,3.5c1.8,1.5,3.2,3.3,4.3,5.3c1.1,2.1,1.7,4.4,1.6,6.8
	c0,2.3-0.5,4.6-1.4,6.7c-1.9,4.1-5.2,7.4-9.5,9.1c-2.1,0.9-4.4,1.3-6.7,1.3h-46.9v20h-14.5v-54L443.3,241.6L443.3,241.6z
	 M397.9,255.3v6.9h50.2v-6.9L397.9,255.3L397.9,255.3z"/>
<path class="st1" d="M469.8,241.7l59.1,0.1c2.1,0,4.3,0.5,6.2,1.4c2,0.9,3.7,2.2,5.3,3.7c1.5,1.6,2.8,3.4,3.6,5.4
	c0.9,2,1.4,4.2,1.4,6.4c0,1.7-0.3,3.3-0.8,4.9c-0.5,1.6-1.3,3.2-2.3,4.5c1.1,1.3,2,2.8,2.6,4.5c0.6,1.5,0.9,3.1,0.9,4.7v18.4h-13.9
	v-20.2H484v20.2h-14.2V241.7z M484,261.8h47.9v-6.5H484V261.8z"/>
<path class="st1" d="M701.1,261.8c2.5,0,4.9,0.4,7.2,1.3c2.2,0.8,4.1,2.1,5.8,3.7c1.6,1.5,3,3.4,3.9,5.4c0.9,2.1,1.4,4.4,1.4,6.6
	c0,2.3-0.5,4.6-1.5,6.7c-1,2-2.4,3.8-4.1,5.3c-1.7,1.5-3.7,2.7-5.8,3.4c-2.2,0.8-4.5,1.2-6.8,1.2H640V282h65.5v-6.4H655
	c-2.4,0-4.7-0.4-6.9-1.3c-2.2-0.8-4.1-2-5.9-3.5c-1.7-1.5-3.1-3.3-4.1-5.3c-1-2.1-1.6-4.4-1.5-6.8c0-1.7,0.3-3.3,0.8-4.9
	c0.5-1.5,1.3-2.9,2.3-4.1c1-1.2,2.1-2.4,3.4-3.3c1.3-1,2.7-1.8,4.2-2.4c3-1.3,6.3-2,9.7-2h59v13.3h-64.5v6.6L701.1,261.8
	L701.1,261.8z"/>
<path class="st1" d="M627.8,252.5c-0.9-2-2.2-3.9-3.7-5.5c-1.6-1.6-3.4-2.9-5.4-3.8c-2-0.9-4.2-1.4-6.5-1.4h-39.9
	c-2.4,0-4.8,0.4-7.1,1.2c-2.2,0.7-4.3,1.9-6.2,3.3c-1.8,1.4-3.2,3.1-4.3,5c-1.1,2-1.6,4.2-1.6,6.4v20.4c0,2.4,0.4,4.7,1.3,6.9
	c1.7,4.1,5,7.4,9.1,9c2.2,0.9,4.5,1.3,6.8,1.3h8.2c-4.4-3.3-7.4-8.1-8.3-13.5h-3.1v-26H615v26h-2.5c-0.9,5.4-3.9,10.3-8.4,13.5h7.8
	c1.5,0,3-0.2,4.4-0.6c1.4-0.4,2.8-1,4-1.7c1.3-0.7,2.5-1.6,3.5-2.5c1.1-1,2-2.1,2.8-3.3c0.8-1.2,1.4-2.5,1.8-3.9
	c0.4-1.4,0.6-2.9,0.6-4.3v-20C629.2,256.8,628.7,254.5,627.8,252.5z"/>
<path class="st0" d="M575.7,278.2c0-8.6,7-15.6,15.6-15.6s15.6,7,15.6,15.6c0,8.6-7,15.6-15.6,15.6c0,0,0,0,0,0
	C582.7,293.8,575.7,286.8,575.7,278.2C575.7,278.2,575.7,278.2,575.7,278.2z"/>
</svg>
