<?xml version="1.0" encoding="utf-8"?>
<!-- Generator: Adobe Illustrator 20.0.0, SVG Export Plug-In . SVG Version: 6.00 Build 0)  -->
<svg version="1.1" id="Layer_1" xmlns="http://www.w3.org/2000/svg" xmlns:xlink="http://www.w3.org/1999/xlink" x="0px" y="0px"
	 viewBox="0 0 612 238.6" style="enable-background:new 0 0 612 238.6;" xml:space="preserve">
<style type="text/css">
	.st0{fill:#878787;}
	.st1{fill-rule:evenodd;clip-rule:evenodd;fill:#656666;}
	.st2{fill:#6FB63A;}
</style>
<g>
	<path class="st0" d="M259.8,160.9h4l6,16.9H266l-1.1-3.5h-6.2l-1.1,3.5h-3.7L259.8,160.9z M259.6,171.4h4.3l-2.1-6.7L259.6,171.4z"
		/>
	<path class="st0" d="M290.3,162.7c0.5,0.7,0.8,1.6,0.8,2.6c0,1-0.3,1.9-0.8,2.5c-0.3,0.4-0.7,0.7-1.3,1c0.9,0.3,1.5,0.8,2,1.5
		c0.4,0.7,0.7,1.5,0.7,2.5c0,1-0.2,1.9-0.8,2.7c-0.3,0.5-0.7,1-1.2,1.3c-0.5,0.4-1.2,0.7-1.9,0.9c-0.7,0.2-1.5,0.2-2.4,0.2h-7.6
		v-16.9h8.2C288,160.9,289.4,161.5,290.3,162.7z M281.1,163.8v3.7h4.1c0.7,0,1.3-0.1,1.8-0.4c0.5-0.3,0.7-0.8,0.7-1.5
		c0-0.8-0.3-1.3-0.9-1.6c-0.5-0.2-1.2-0.3-2-0.3H281.1z M281.1,170.4v4.5h4.1c0.7,0,1.3-0.1,1.7-0.3c0.7-0.4,1.1-1.1,1.1-2.1
		c0-0.9-0.4-1.5-1.1-1.8c-0.4-0.2-1-0.3-1.7-0.3H281.1z"/>
	<path class="st0" d="M294.7,160.9h3.6v10.4c0,1.2,0.1,2,0.4,2.5c0.4,0.9,1.4,1.4,2.8,1.4c1.4,0,2.4-0.5,2.8-1.4
		c0.3-0.5,0.4-1.4,0.4-2.5v-10.4h3.6v10.4c0,1.8-0.3,3.2-0.8,4.2c-1,1.8-3,2.8-6,2.8c-2.9,0-4.9-0.9-6-2.8c-0.6-1-0.8-2.4-0.8-4.2
		V160.9z"/>
	<path class="st0" d="M311.6,160.9h3.5v13.9h8.5v3h-12V160.9z"/>
	<path class="st0" d="M337.4,170.5c-1,0.8-2.4,1.2-4.2,1.2h-3.5v6.1h-3.5v-16.9h7.3c1.7,0,3,0.4,4,1.3c1,0.9,1.5,2.2,1.5,4.1
		C338.9,168.2,338.4,169.7,337.4,170.5z M334.7,164.4c-0.4-0.4-1.1-0.6-1.9-0.6h-3.2v5h3.2c0.8,0,1.4-0.2,1.9-0.6
		c0.4-0.4,0.7-1,0.7-1.9C335.4,165.4,335.1,164.8,334.7,164.4z"/>
	<path class="st0" d="M352.6,161.3c0.6,0.3,1.2,0.7,1.6,1.2c0.4,0.4,0.6,0.9,0.9,1.4c0.2,0.5,0.3,1.1,0.3,1.8c0,0.8-0.2,1.6-0.6,2.4
		c-0.4,0.8-1.1,1.3-2,1.6c0.8,0.3,1.3,0.8,1.7,1.3c0.3,0.6,0.5,1.5,0.5,2.6v1.1c0,0.8,0,1.3,0.1,1.6c0.1,0.4,0.3,0.8,0.7,1v0.4h-3.9
		c-0.1-0.4-0.2-0.7-0.2-0.9c-0.1-0.5-0.1-1-0.2-1.5l0-1.6c0-1.1-0.2-1.8-0.6-2.2c-0.4-0.4-1-0.5-2-0.5h-3.5v6.6h-3.5v-16.9h8.1
		C351.1,160.9,351.9,161,352.6,161.3z M345.3,163.8v4.6h3.8c0.8,0,1.3-0.1,1.7-0.3c0.7-0.3,1-1,1-1.9c0-1-0.3-1.7-1-2.1
		c-0.4-0.2-0.9-0.3-1.6-0.3H345.3z"/>
	<path class="st0" d="M371.8,176.3c-1.3,1.3-3.1,2-5.6,2c-2.4,0-4.3-0.7-5.6-2c-1.7-1.6-2.6-3.9-2.6-7c0-3.1,0.9-5.4,2.6-7
		c1.3-1.3,3.1-2,5.6-2c2.4,0,4.3,0.7,5.6,2c1.7,1.6,2.6,3.9,2.6,7C374.3,172.4,373.5,174.7,371.8,176.3z M369.5,173.7
		c0.8-1,1.2-2.5,1.2-4.4c0-1.9-0.4-3.4-1.2-4.4c-0.8-1-1.9-1.6-3.3-1.6s-2.5,0.5-3.4,1.6c-0.8,1-1.3,2.5-1.3,4.4
		c0,1.9,0.4,3.4,1.3,4.4c0.8,1,2,1.6,3.4,1.6S368.7,174.8,369.5,173.7z"/>
	<path class="st0" d="M379.6,172.6c0.1,0.8,0.3,1.4,0.6,1.7c0.6,0.7,1.6,1,3,1c0.9,0,1.5-0.1,2.1-0.3c1-0.4,1.5-1,1.5-2
		c0-0.6-0.2-1-0.7-1.3c-0.5-0.3-1.3-0.6-2.4-0.8l-1.8-0.4c-1.8-0.4-3-0.8-3.7-1.3c-1.1-0.8-1.7-2-1.7-3.7c0-1.5,0.6-2.8,1.7-3.8
		c1.1-1,2.8-1.5,4.9-1.5c1.8,0,3.3,0.5,4.6,1.4c1.3,0.9,1.9,2.3,2,4.1h-3.4c-0.1-1-0.5-1.7-1.4-2.2c-0.6-0.3-1.3-0.4-2.1-0.4
		c-0.9,0-1.7,0.2-2.2,0.6c-0.6,0.4-0.8,0.9-0.8,1.5c0,0.6,0.3,1.1,0.8,1.4c0.4,0.2,1.1,0.4,2.3,0.7l3,0.7c1.3,0.3,2.3,0.7,2.9,1.2
		c1,0.8,1.5,1.9,1.5,3.5c0,1.5-0.6,2.8-1.8,3.9c-1.2,1-2.9,1.5-5.1,1.5c-2.2,0-4-0.5-5.3-1.5c-1.3-1-1.9-2.4-1.9-4.2H379.6z"/>
	<path class="st0" d="M400.9,162.6c1.4-1.4,3.1-2.1,5.2-2.1c2.8,0,4.9,0.9,6.2,2.8c0.7,1.1,1.1,2.1,1.2,3.2h-3.5
		c-0.2-0.8-0.5-1.4-0.9-1.8c-0.6-0.7-1.6-1.1-2.8-1.1c-1.3,0-2.3,0.5-3,1.6c-0.7,1-1.1,2.5-1.1,4.4s0.4,3.3,1.2,4.3
		c0.8,0.9,1.7,1.4,2.9,1.4c1.2,0,2.1-0.4,2.8-1.2c0.4-0.4,0.6-1.1,0.9-2h3.5c-0.3,1.8-1.1,3.3-2.3,4.5s-2.8,1.7-4.8,1.7
		c-2.4,0-4.3-0.8-5.7-2.3c-1.4-1.6-2.1-3.7-2.1-6.5C398.5,166.5,399.3,164.2,400.9,162.6z"/>
	<path class="st0" d="M429.3,176.3c-1.3,1.3-3.1,2-5.6,2c-2.4,0-4.3-0.7-5.6-2c-1.7-1.6-2.6-3.9-2.6-7c0-3.1,0.9-5.4,2.6-7
		c1.3-1.3,3.1-2,5.6-2c2.4,0,4.3,0.7,5.6,2c1.7,1.6,2.6,3.9,2.6,7C431.8,172.4,431,174.7,429.3,176.3z M427.1,173.7
		c0.8-1,1.2-2.5,1.2-4.4c0-1.9-0.4-3.4-1.2-4.4s-1.9-1.6-3.3-1.6c-1.4,0-2.5,0.5-3.4,1.6c-0.8,1-1.3,2.5-1.3,4.4
		c0,1.9,0.4,3.4,1.3,4.4c0.8,1,2,1.6,3.4,1.6C425.1,175.3,426.3,174.8,427.1,173.7z"/>
	<path class="st0" d="M445.8,160.9h5.1v16.9h-3.3v-11.5c0-0.3,0-0.8,0-1.4c0-0.6,0-1.1,0-1.4l-3.2,14.2H441l-3.2-14.2
		c0,0.3,0,0.8,0,1.4c0,0.6,0,1.1,0,1.4v11.5h-3.3v-16.9h5.1l3.1,13.3L445.8,160.9z"/>
	<path class="st0" d="M465.5,170.5c-1,0.8-2.4,1.2-4.2,1.2h-3.5v6.1h-3.5v-16.9h7.3c1.7,0,3,0.4,4,1.3c1,0.9,1.5,2.2,1.5,4.1
		C467,168.2,466.5,169.7,465.5,170.5z M462.8,164.4c-0.4-0.4-1.1-0.6-1.9-0.6h-3.2v5h3.2c0.8,0,1.4-0.2,1.9-0.6s0.7-1,0.7-1.9
		C463.5,165.4,463.3,164.8,462.8,164.4z"/>
	<path class="st0" d="M473,160.9h4l6,16.9h-3.8l-1.1-3.5h-6.2l-1.1,3.5h-3.7L473,160.9z M472.7,171.4h4.3l-2.1-6.7L472.7,171.4z"/>
	<path class="st0" d="M485.1,160.9h3.7l6.7,11.8v-11.8h3.3v16.9h-3.5l-6.9-12v12h-3.3V160.9z"/>
	<path class="st0" d="M511.8,160.9h4l-5.7,10.6v6.4h-3.5v-6.4l-5.9-10.6h4.2l3.5,7.4L511.8,160.9z"/>
</g>
<g>
	<g>
		<path class="st1" d="M345.8,94.4c-2.7,0.1-5.5,0.8-8.1,2.2c-2.6,1.4-4.9,3.4-6.6,5.4v-7.6H318v49h13.1v-19.2
			c0-4.7,1.1-8.4,3.1-11.3c2-2.8,7.6-7.4,11.6-7.4V94.4z M301.8,131.3c-1.3,0-2.5-0.4-3.5-1.5c-1-1-1.6-2.7-1.6-4.6V108h11.6V94.4
			h-24.7v31.3c0,5.3,1.4,10.1,4.5,13.1c3.2,3,7,4.5,11.6,4.5c4.6,0,9-2.2,13.1-6.1l-5.1-9.1C306.1,130.5,304.3,131.3,301.8,131.3z
			 M257.7,94.4c-5.1,0-9.4,2.4-13.4,6.5v-6.6h-13.6v49h13.6v-27.3c0-3.8,0.7-6.2,2.7-8.1c2-1.9,4.2-3,6.9-3c5.4,0,8.6,3.7,8.6,11.1
			v27.3h13.1l0-29.3c0-6-1.7-10.7-5.2-14.3C267,96.2,262.8,94.4,257.7,94.4z M194.2,108h13.6v35.4h13.6v-49h-27.3V108z M503.8,129.7
			V94.4h-13.6v49H517v-13.6H503.8z M460.2,94.4c-13.5,0-24.5,11-24.5,24.5c0,13.5,11,24.5,24.5,24.5c13.5,0,24.5-11,24.5-24.5
			C484.6,105.4,473.7,94.4,460.2,94.4z M460.4,131.3c-7,0-12.6-5.7-12.6-12.6s5.7-12.6,12.6-12.6s12.6,5.7,12.6,12.6
			S467.4,131.3,460.4,131.3z M382.8,98.8c-3.6-2.9-8.3-4.3-14.1-4.3c-8,0-7.7-0.1-13.9-0.1v11.1c0,0,9.6,0,11.6,0
			c5.3,0,9.1,2.5,9.1,7.6h-9.1c-6.1,0-12.1,1-15.7,3.4c-3.5,2.4-5.3,6-5.3,10.9c0,4.8,1.7,8.7,5.1,11.6c3.4,2.9,7.6,4.4,12.6,4.4
			c5,0,8.8-2.1,12.2-6.4v6.4h12.8l0-30.9C388.3,106.2,386.4,101.7,382.8,98.8z M375.6,124.7c0,2.4-1.5,4.3-3.3,5.7
			c-1.8,1.4-4,2.4-6.3,2.4c-2.3,0-4-0.7-5.3-1.6c-1.3-0.9-2.3-2.3-2.3-4c0-3.3,3.8-4.5,9.1-4.5h8.1V124.7z M418.5,106
			c3.4,0,6.6,1.4,8.8,3.6l8.1-8.1c-4.4-4.4-10.5-7.1-17.2-7.1c-13.5,0-24.5,11-24.5,24.5c0,13.5,11,24.5,24.5,24.5
			c6.6,0,12.6-2.6,17-6.8l-8.4-8.4c-2.2,1.9-5.1,3.1-8.3,3.1c-7,0-12.6-5.7-12.6-12.6S411.5,106,418.5,106z"/>
	</g>
</g>
<g>
	<g>
		<path class="st2" d="M118.2,165.4c-25.8,0-46.7-20.8-46.7-46.5c0-3.7,0.4-7.2,1.2-10.6H60.4c-0.6,3.4-1,7-1,10.6
			c0,32.4,26.5,58.6,59.1,58.6c23.7,0,44.2-13.9,53.6-33.8h-14.3C149.5,156.7,134.9,165.4,118.2,165.4z M118.5,60.3
			c-23.9,0-44.5,14.1-53.8,34.3h13.7c8.2-13.3,23-22.2,39.9-22.2c25.8,0,46.7,20.8,46.7,46.5c0,3.8-0.5,7.5-1.4,11.1h12.9
			c0.7-3.6,1.1-7.3,1.1-11.1C177.6,86.5,151.1,60.3,118.5,60.3z M146.3,108.3V94.7h-25.8v49h25.8V130h-12.6v-21.7H146.3z
			 M116.5,143.6v-49H89.7v13.6h13.6v35.4H116.5z"/>
	</g>
</g>
</svg>
