<svg id="Layer_1" data-name="Layer 1" xmlns="http://www.w3.org/2000/svg" viewBox="0 0 57.39 54.14"><defs><style>.cls-1{opacity:0.4;}.cls-2{fill:#231f20;}.cls-3{fill:#fff;}.cls-4{fill:#00b39f;}</style></defs><title>map_pin</title><g id="_Group_" data-name="&lt;Group&gt;"><g id="_Group_2" data-name="&lt;Group&gt;" class="cls-1"><path id="_Path_" data-name="&lt;Path&gt;" class="cls-2" d="M1184.93.62h0s-16.87-1.32-16.68,10.5c-.37,7.67,6.56,16.47,6.56,16.47l.12,0,.13,0s32.91-3.78,33.56-15.37C1209.28.42,1184.93.62,1184.93.62Z" transform="translate(-1151.24 26.51)"/></g><g id="_Group_3" data-name="&lt;Group&gt;"><path class="cls-3" d="M1174.93,27c-2-1.32-23.54-16-23.19-30.28-.05-6.76,1.88-12.15,5.73-16,6.49-6.54,16.27-6.73,17.37-6.73h.24c1.59,0,11,.37,17.31,6.73,3.86,3.89,5.79,9.28,5.73,16C1198.47,11.06,1176.93,25.72,1174.93,27Z" transform="translate(-1151.24 26.51)"/><path class="cls-4" d="M1174.84-25.5h.76c2.42.09,10.73.83,16.42,6.57,3.76,3.79,5.64,9.06,5.59,15.7.33,13.54-19.54,27.54-22.69,29.67-3.16-2.13-23-16.12-22.69-29.7-.05-6.6,1.83-11.87,5.59-15.66,6.34-6.39,15.94-6.58,17-6.58m.18-1h-.18c-1.58,0-23.78.41-23.6,23.25-.37,15.38,23.56,30.81,23.56,30.81l.12.07.13-.07S1199,12.12,1198.62-3.25c.18-22.84-22-23.25-23.6-23.25Z" transform="translate(-1151.24 26.51)"/></g></g></svg>